<svg width="23" height="24" viewBox="0 0 23 24" fill="none" xmlns="http://www.w3.org/2000/svg">
<path d="M12.7969 18.6354C13.0655 18.6354 13.2906 18.5446 13.4723 18.3629C13.6539 18.1812 13.7448 17.9561 13.7448 17.6875C13.7448 17.4189 13.6539 17.1938 13.4723 17.0121C13.2906 16.8304 13.0655 16.7396 12.7969 16.7396C12.5283 16.7396 12.3032 16.8304 12.1215 17.0121C11.9398 17.1938 11.849 17.4189 11.849 17.6875C11.849 17.9561 11.9398 18.1812 12.1215 18.3629C12.3032 18.5446 12.5283 18.6354 12.7969 18.6354ZM16.1146 18.6354C16.3832 18.6354 16.6083 18.5446 16.79 18.3629C16.9717 18.1812 17.0625 17.9561 17.0625 17.6875C17.0625 17.4189 16.9717 17.1938 16.79 17.0121C16.6083 16.8304 16.3832 16.7396 16.1146 16.7396C15.846 16.7396 15.6209 16.8304 15.4392 17.0121C15.2575 17.1938 15.1667 17.4189 15.1667 17.6875C15.1667 17.9561 15.2575 18.1812 15.4392 18.3629C15.6209 18.5446 15.846 18.6354 16.1146 18.6354ZM2.84375 13.1849V3.94272C2.84375 3.56355 2.98594 3.23178 3.27031 2.94741C3.55469 2.66303 3.88646 2.52084 4.26562 2.52084H18.4844C18.8635 2.52084 19.1953 2.66303 19.4797 2.94741C19.7641 3.23178 19.9062 3.56355 19.9062 3.94272V13.1849H2.84375ZM4.26562 21.4792C3.88646 21.4792 3.55469 21.337 3.27031 21.0526C2.98594 20.7682 2.84375 20.4365 2.84375 20.0573V14.6068H19.9062V20.0573C19.9062 20.4365 19.7641 20.7682 19.4797 21.0526C19.1953 21.337 18.8635 21.4792 18.4844 21.4792H4.26562Z" fill="#2E2E2E"/>
</svg>
