<svg width="20" height="17" viewBox="0 0 20 17" fill="none" xmlns="http://www.w3.org/2000/svg">
<path d="M2.31769 16.0833C1.93852 16.0833 1.60675 15.9372 1.32238 15.6449C1.038 15.3526 0.895813 15.0248 0.895813 14.6614V2.33853C0.895813 1.97516 1.038 1.64734 1.32238 1.35507C1.60675 1.06279 1.93852 0.916656 2.31769 0.916656H8.9768L10.3987 2.33853H18.4323C18.7956 2.33853 19.1235 2.48467 19.4157 2.77694C19.708 3.06922 19.8541 3.39704 19.8541 3.76041V14.6614C19.8541 15.0248 19.708 15.3526 19.4157 15.6449C19.1235 15.9372 18.7956 16.0833 18.4323 16.0833H2.31769ZM9.40337 13.0026H16.9867V12.5523C16.9867 11.8888 16.651 11.3477 15.9795 10.929C15.3081 10.5104 14.3799 10.301 13.195 10.301C12.0101 10.301 11.082 10.5104 10.4105 10.929C9.73909 11.3477 9.40337 11.8888 9.40337 12.5523V13.0026ZM13.195 8.87916C13.669 8.87916 14.0758 8.70932 14.4155 8.36965C14.7551 8.02998 14.925 7.62317 14.925 7.14921C14.925 6.67525 14.7551 6.26844 14.4155 5.92877C14.0758 5.5891 13.669 5.41926 13.195 5.41926C12.7211 5.41926 12.3143 5.5891 11.9746 5.92877C11.6349 6.26844 11.4651 6.67525 11.4651 7.14921C11.4651 7.62317 11.6349 8.02998 11.9746 8.36965C12.3143 8.70932 12.7211 8.87916 13.195 8.87916Z" fill="white"/>
</svg>
