<svg width="17" height="16" viewBox="0 0 17 16" fill="none" xmlns="http://www.w3.org/2000/svg">
<path d="M14.0435 13.6298C13.8482 13.825 13.5317 13.825 13.3364 13.6298L9.63581 9.9292C9.45032 9.74372 9.15477 9.73656 8.93542 9.88042C8.69381 10.0389 8.42888 10.1704 8.14063 10.275C7.69664 10.4361 7.22419 10.5167 6.72328 10.5167C5.52148 10.5167 4.50436 10.1 3.67193 9.26667C2.8395 8.43334 2.42328 7.42778 2.42328 6.25C2.42328 5.07223 2.83995 4.06667 3.67328 3.23334C4.50661 2.4 5.51495 1.98334 6.69828 1.98334C7.88161 1.98334 8.88717 2.4 9.71494 3.23334C10.5427 4.06667 10.9566 5.07306 10.9566 6.2525C10.9566 6.72861 10.8788 7.18889 10.7233 7.63334C10.6152 7.94212 10.4696 8.23749 10.2864 8.51945C10.1473 8.73372 10.1608 9.01981 10.3421 9.19979L14.067 12.8965C14.2636 13.0915 14.2642 13.4091 14.0684 13.6049L14.0435 13.6298ZM6.70661 9.51667C7.60939 9.51667 8.37675 9.19723 9.00869 8.55834C9.64064 7.91945 9.95661 7.15 9.95661 6.25C9.95661 5.35 9.64064 4.58056 9.00869 3.94167C8.37675 3.30278 7.60939 2.98334 6.70661 2.98334C5.79458 2.98334 5.01935 3.30278 4.38091 3.94167C3.74249 4.58056 3.42328 5.35 3.42328 6.25C3.42328 7.15 3.74249 7.91945 4.38091 8.55834C5.01935 9.19723 5.79458 9.51667 6.70661 9.51667Z" fill="#757575" stroke="#757575" stroke-width="0.3"/>
</svg>
